<svg xmlns="http://www.w3.org/2000/svg" xmlns:xlink="http://www.w3.org/1999/xlink" width="1024" zoomAndPan="magnify" viewBox="0 0 768 767.999994" height="1024" preserveAspectRatio="xMidYMid meet" version="1.0"><defs><g/><clipPath id="0607170b74"><path d="M 66 25.304688 L 767.851562 25.304688 L 767.851562 743 L 66 743 Z M 66 25.304688 " clip-rule="nonzero"/></clipPath></defs><g clip-path="url(#0607170b74)"><path fill="#ffffff" d="M 138.714844 546.539062 C 278.984375 544.113281 249.058594 505.09375 254.679688 650.570312 C 254.683594 656.675781 250 661.488281 243.582031 661.671875 C 103.609375 662.40625 126.195312 689.054688 138.714844 546.539062 Z M 149.53125 554.183594 L 145.214844 554.183594 C 150.546875 581.0625 153.375 610.835938 154.871094 638.535156 C 176.414062 638.664062 209.257812 637.777344 230.753906 638.316406 C 230.558594 616.722656 232.304688 582.160156 232.574219 560.515625 C 205.652344 559.835938 175.941406 557.03125 149.53125 554.183594 Z M 141.152344 381.25 C 168.960938 380.929688 196.59375 372.40625 225.660156 373.941406 C 225.660156 373.941406 243.582031 373.347656 243.582031 373.347656 C 257.859375 372.464844 251.632812 401.027344 253.410156 408.914062 C 253.304688 421.636719 253.667969 454.378906 254.410156 466.5625 C 254.535156 480.90625 258.289062 496.441406 237.488281 494.277344 C 212.339844 495.257812 183.429688 495.875 158.238281 496.027344 C 138.042969 496.308594 127.640625 496.976562 130.582031 472.605469 C 129.601562 441.925781 135.292969 410.136719 141.152344 381.25 Z M 151.652344 387.191406 L 145.390625 387.191406 C 150.285156 413.332031 153.527344 444.121094 154.875 471.085938 C 176.414062 471.222656 209.257812 470.339844 230.753906 470.886719 C 230.5625 449.292969 232.304688 414.71875 232.574219 393.074219 C 205.492188 392.597656 178.605469 389.242188 151.652344 387.191406 Z M 141.421875 214.769531 C 170.527344 212.554688 196.515625 205.195312 225.660156 206.511719 C 225.660156 206.511719 243.582031 205.910156 243.582031 205.910156 C 257.859375 205.046875 251.632812 233.582031 253.410156 241.476562 C 253.304688 254.195312 253.667969 286.9375 254.410156 299.125 C 254.539062 313.46875 258.289062 329.007812 237.488281 326.847656 C 212.390625 327.785156 183.394531 328.46875 158.238281 328.59375 C 138.078125 328.878906 127.640625 329.539062 130.582031 305.167969 C 129.792969 274.886719 134.730469 243.132812 141.421875 214.769531 Z M 145.332031 219.621094 C 150.339844 245.8125 153.492188 276.621094 154.875 303.65625 C 176.414062 303.78125 209.257812 302.910156 230.753906 303.449219 C 230.5625 281.855469 232.304688 247.289062 232.574219 225.648438 C 203.472656 225.625 174.605469 220.550781 145.332031 219.621094 Z M 715.105469 225.386719 C 683.78125 269.257812 645.871094 325.707031 617.257812 375.113281 C 625.753906 285.675781 626.925781 169.707031 627.996094 78.242188 C 628.054688 49.46875 605.316406 26.332031 575.222656 26.179688 C 424.019531 25.59375 271.246094 24.765625 120.027344 25.652344 C 91.027344 24.445312 64.816406 50.261719 66.164062 79.460938 C 67.09375 278.589844 68.164062 490.566406 68.433594 690.925781 C 67.375 765.226562 180.050781 736.175781 225.296875 741.039062 C 306.757812 740.867188 412.53125 740.15625 494.425781 739.808594 C 538.71875 737.296875 631.21875 754.566406 621.347656 682.492188 C 618.996094 656.375 618.523438 551.789062 616.253906 528.042969 C 664.535156 441.6875 724.992188 342.359375 767.382812 253.480469 C 773.058594 247.910156 718.429688 229.257812 715.105469 225.386719 Z M 714.976562 233.679688 C 716.273438 228.851562 728.121094 239.199219 729.5 240.332031 L 747.09375 250.394531 C 750.929688 253.003906 747.746094 252.207031 753.371094 255.242188 C 692.414062 351.488281 634.691406 455.546875 575.3125 553.097656 C 575.3125 553.097656 571.492188 559.824219 571.492188 559.824219 C 564.21875 565.105469 549.09375 576.773438 542.015625 582.304688 C 542.015625 582.304688 546.382812 545.382812 546.382812 545.382812 C 603.625 444.964844 665.839844 336.546875 714.976562 233.679688 Z M 609.613281 574.472656 C 609.28125 562.328125 609.703125 551.167969 609.703125 539.351562 C 587.851562 584.699219 580.785156 581.707031 543.375 610.804688 C 543.375 610.800781 533.003906 618.902344 533.003906 618.902344 C 524.855469 624.96875 513.695312 618.058594 514.898438 608.445312 C 517.726562 585.824219 519.757812 562.660156 522.175781 539.953125 C 549.1875 486.734375 582.359375 434.148438 612.707031 382.660156 C 607.679688 299.9375 608.988281 217.214844 607.0625 134.398438 C 437.203125 146.960938 260.296875 154.988281 90.816406 137.648438 C 90.636719 321.058594 91.695312 506.414062 89.90625 689.839844 C 89.828125 699.167969 92.335938 707.207031 100.007812 713.6875 C 109.757812 721.925781 119.484375 720.601562 131.394531 720.667969 C 279.261719 721.488281 427.765625 720.605469 575.582031 722.878906 C 617.109375 722.457031 608.078125 673 608.789062 644.25 C 607.457031 622.195312 610.011719 596.730469 609.613281 574.472656 Z M 90.820312 79.105469 C 91.339844 52.34375 115.566406 48.402344 136.402344 50.28125 C 196.496094 50.304688 388.902344 50.0625 445.570312 50.152344 C 493.050781 52.429688 542.433594 45.398438 589.050781 52.230469 C 615.695312 65.828125 603.878906 103.46875 606.882812 126.882812 C 435.492188 121.894531 261.804688 114.699219 90.820312 128.335938 Z M 407.8125 628.488281 L 408.539062 630.644531 C 408.265625 630.992188 407.992188 631.164062 407.8125 631.972656 C 407.769531 632.355469 407.230469 631.941406 406.992188 632.882812 C 406.613281 634.394531 406.25 632.730469 404.71875 635.292969 C 404.117188 636.296875 402.835938 635.320312 401.261719 636.195312 C 399.207031 637.335938 396.792969 636.785156 396.347656 637.476562 C 390.640625 641.636719 374.351562 639.640625 367.417969 640.742188 C 350.671875 641.164062 331.210938 640.230469 315.007812 637.871094 C 314.84375 637.179688 310.453125 637.335938 308.460938 636.039062 C 307.425781 635.367188 305.933594 637.234375 305.546875 635.929688 C 303.539062 633.996094 302.632812 637.210938 300.910156 632.875 L 302 631.78125 C 301.910156 631.726562 301.910156 631.671875 301.910156 631.644531 C 301.820312 631.574219 301.730469 631.5 301.730469 631.191406 C 302.429688 628.867188 300.851562 629.824219 301.730469 628.824219 C 316.550781 614.417969 338.949219 620.519531 357.5 616.941406 C 374.597656 616.480469 399.316406 609.789062 407.8125 628.488281 Z M 465.859375 572.332031 C 466.105469 572.605469 466.078125 573.492188 467.042969 574.488281 C 459.527344 589.878906 314.019531 586.304688 300.902344 576.710938 L 302.542969 575.628906 C 302.453125 575.574219 302.453125 575.507812 302.453125 575.480469 C 301.988281 575.109375 302.398438 574.851562 302.453125 574.714844 C 302.945312 573.441406 302.0625 573.722656 301.90625 573.234375 C 326.308594 557.5 359.046875 564.445312 386.519531 561.027344 C 406.332031 560.710938 453.558594 553 465.859375 572.332031 Z M 300.902344 465.4375 L 301.996094 464.355469 C 301.90625 464.289062 301.90625 464.226562 301.90625 464.199219 C 301.503906 463.875 301.867188 463.539062 301.90625 463.425781 C 302.417969 461.925781 300.058594 461.917969 303.453125 459.886719 C 318 447.671875 338.601562 452.585938 356.3125 449.742188 C 373.722656 448.824219 401.425781 441.734375 408.539062 463.207031 C 407.433594 464.644531 408.03125 464.707031 407.539062 464.753906 C 406.925781 464.816406 407.117188 466.039062 406.445312 466.21875 C 404.835938 466.65625 404.832031 468.242188 404.261719 468.265625 C 399.894531 468.449219 401.148438 469.496094 399.257812 469.429688 C 396.507812 469.332031 396.210938 470.492188 395.523438 470.523438 C 394.433594 470.570312 394.730469 470.96875 394.523438 470.933594 C 393.886719 470.695312 393.339844 471.433594 392.703125 471.851562 C 392.078125 471.992188 389.769531 472.277344 389.0625 472.589844 C 361.707031 473.625 331.179688 474.328125 305.539062 468.503906 C 303.597656 466.574219 302.585938 469.664062 300.902344 465.4375 Z M 516.171875 407.050781 C 515.628906 407.398438 515.171875 407.570312 514.808594 408.378906 C 514.597656 408.847656 513.90625 408.1875 513.171875 409.289062 C 512.21875 410.714844 511.105469 409.359375 508.4375 411.707031 C 443.5625 421.566406 375.46875 417.4375 310.273438 412.335938 C 307.179688 410.710938 302.910156 412.882812 300.902344 409.277344 L 302.996094 408.1875 C 302.996094 408.132812 302.902344 408.078125 302.902344 408.050781 C 302.25 407.785156 302.902344 407.277344 302.902344 407.277344 C 303.421875 405.847656 302.398438 406.320312 302.175781 405.777344 C 335.765625 389.691406 376.113281 397.292969 411.8125 393.589844 C 436.617188 393.449219 502.609375 384.734375 516.171875 407.050781 Z M 301.722656 299.507812 C 300.984375 297.960938 300.191406 298.167969 301.996094 296.90625 C 301.902344 296.859375 301.902344 296.789062 301.902344 296.757812 C 301.8125 296.6875 301.722656 296.621094 301.722656 296.3125 C 302.464844 293.992188 300.847656 295.035156 301.722656 293.9375 C 315.707031 279.96875 338.984375 285.390625 357.496094 282.074219 C 374.15625 281.527344 402 274.648438 408.535156 295.777344 C 408.265625 296.125 407.992188 296.277344 407.808594 297.097656 C 407.765625 297.503906 407.226562 297.054688 406.992188 298.003906 C 406.613281 299.515625 406.203125 297.871094 404.71875 300.417969 C 404.121094 301.4375 402.847656 300.417969 401.261719 301.328125 C 399.335938 302.429688 396.785156 301.925781 396.347656 302.601562 C 395.703125 303.433594 394.863281 302.859375 394.527344 303.472656 C 376.335938 307.386719 350.15625 306.4375 331.929688 304.476562 C 325.25 304.035156 314.324219 303.957031 308.457031 301.160156 C 307.4375 300.492188 305.933594 302.363281 305.546875 301.050781 C 305.105469 299.582031 302.773438 301.296875 301.722656 299.507812 Z M 302.632812 243.359375 L 300.902344 241.839844 L 302.996094 240.757812 C 302.996094 240.695312 302.90625 240.640625 302.90625 240.605469 C 302.246094 240.339844 302.902344 239.859375 302.90625 239.847656 C 303.449219 238.4375 302.390625 238.863281 302.175781 238.347656 C 335.757812 222.320312 376.050781 229.703125 411.8125 226.144531 C 436.386719 225.871094 502.898438 217.460938 516.171875 239.613281 C 515.628906 239.96875 515.171875 240.140625 514.808594 240.949219 C 514.59375 241.421875 513.917969 240.730469 513.171875 241.859375 C 512.234375 243.273438 511.117188 241.917969 508.4375 244.269531 C 441.386719 253.671875 369.328125 251.347656 302.632812 243.359375 Z M 216.105469 418.84375 C 200.714844 406.328125 191.109375 423.476562 184.988281 434.808594 C 183.300781 433.289062 173.890625 434.136719 172.980469 434.4375 L 170.976562 436.59375 C 169.75 436.65625 169.683594 436.753906 168.976562 438.277344 C 168.222656 439.902344 169.433594 439.742188 169.433594 439.941406 C 169.433594 440.4375 169.871094 440.492188 169.433594 440.980469 C 168.542969 441.957031 170.585938 441.433594 170.523438 442.28125 L 171.886719 446.074219 C 172.066406 446.144531 171.128906 447.121094 171.796875 447.238281 C 177.410156 452.625 180.808594 466.835938 192.179688 460.078125 C 200.238281 454.710938 214.496094 437.847656 216.289062 428.859375 C 215.972656 428.144531 216.738281 428.476562 216.289062 427.539062 C 215.957031 426.839844 217.269531 425.902344 217.109375 424.484375 C 216.953125 423.144531 218.222656 423.160156 217.5625 422.355469 C 216.359375 420.886719 217.394531 420.734375 216.5625 419.78125 Z M 214.832031 250.386719 C 200.425781 237.890625 189.675781 254.664062 183.714844 266.351562 C 182.1875 264.824219 172.566406 265.6875 171.707031 265.980469 L 169.703125 268.128906 C 168.296875 267.707031 166.523438 271.109375 168.15625 271.484375 C 168.699219 273.796875 166.671875 272.199219 168.792969 273.351562 C 169.6875 273.835938 168.894531 274.480469 169.976562 276.46875 C 170.292969 276.605469 170.757812 277.710938 170.523438 277.898438 C 185.777344 310.792969 203.375 281.457031 214.648438 262.742188 C 214.648438 262.742188 215.105469 261.914062 215.105469 261.914062 C 215.015625 261.367188 214.648438 260.628906 215.105469 260.476562 C 215.105469 260.476562 215.105469 260.429688 215.015625 260.402344 C 214.695312 259.6875 215.460938 260.019531 215.015625 259.085938 C 214.714844 258.453125 215.984375 257.355469 215.832031 256.019531 C 215.679688 254.675781 216.945312 254.703125 216.289062 253.898438 C 215.085938 252.429688 216.117188 252.277344 215.285156 251.324219 C 214.464844 250.378906 215.261719 250.726562 214.832031 250.386719 Z M 214.832031 250.386719 " fill-opacity="1" fill-rule="evenodd"/></g><g fill="#ffffff" fill-opacity="1"><g transform="translate(239.652339, 652.505844)"><g><path d="M 3.671875 0.140625 C 3.160156 0.140625 2.753906 -0.00390625 2.453125 -0.296875 C 2.148438 -0.585938 2 -0.976562 2 -1.46875 C 2 -1.9375 2.148438 -2.320312 2.453125 -2.625 C 2.753906 -2.9375 3.160156 -3.09375 3.671875 -3.09375 C 4.203125 -3.09375 4.617188 -2.945312 4.921875 -2.65625 C 5.222656 -2.363281 5.375 -1.972656 5.375 -1.484375 C 5.375 -1.003906 5.21875 -0.613281 4.90625 -0.3125 C 4.601562 -0.0078125 4.191406 0.140625 3.671875 0.140625 Z M 3.671875 0.140625 "/></g></g></g></svg>